<?xml version="1.0" encoding="utf-8" ?>	<!-- Generator: Assembly 2.4 - http://assemblyapp.co -->	<svg version="1.1" xmlns="http://www.w3.org/2000/svg" xmlns:xlink="http://www.w3.org/1999/xlink" width="4096.00" height="2304.00" viewBox="0 0 4096.0 2304.0">		<g id="document" transform="scale(1.0 1.0) translate(2048.0 1151.9999914169312)">			<g>				<g>					<path d="M-1597.89,-3.11621 C-1597.89,-89.1237 -1667.7,-158.927 -1753.7,-158.927 C-1839.71,-158.927 -1909.51,-89.1237 -1909.51,-3.11621 C-1909.51,82.8913 -1839.71,152.694 -1753.7,152.694 C-1667.7,152.694 -1597.89,82.8913 -1597.89,-3.11621 Z M-1753.7,-96.6026 C-1701.97,-96.6026 -1660.22,-54.8454 -1660.22,-3.11621 C-1660.22,48.6129 -1701.97,90.3702 -1753.7,90.3702 C-1805.43,90.3702 -1847.19,48.6129 -1847.19,-3.11621 C-1847.19,-54.8454 -1805.43,-96.6026 -1753.7,-96.6026 Z " fill="#000000" fill-opacity="1.00" />					<path d="M-992.55,64.1689 C-955.409,27.0275 -955.409,-33.2599 -992.55,-70.4013 C-1029.69,-107.543 -1089.98,-107.543 -1127.12,-70.4013 C-1164.26,-33.2599 -1164.26,27.0275 -1127.12,64.1689 C-1089.98,101.31 -1029.69,101.31 -992.55,64.1689 Z M-1019.46,-43.4873 C-997.125,-21.1486 -997.125,14.9162 -1019.46,37.2549 C-1041.8,59.5935 -1077.87,59.5935 -1100.21,37.2549 C-1122.54,14.9162 -1122.54,-21.1486 -1100.21,-43.4873 C-1077.87,-65.8259 -1041.8,-65.8259 -1019.46,-43.4873 Z " fill="#000000" fill-opacity="1.00" />					<path d="M-1501.29,-261.402 C-1475.03,-306.882 -1490.63,-365.103 -1536.11,-391.361 C-1581.59,-417.618 -1639.81,-402.018 -1666.07,-356.538 C-1692.32,-311.059 -1676.72,-252.837 -1631.24,-226.58 C-1585.77,-200.322 -1527.54,-215.922 -1501.29,-261.402 Z M-1555.14,-358.405 C-1527.78,-342.612 -1518.45,-307.783 -1534.24,-280.429 C-1550.04,-253.076 -1584.86,-243.743 -1612.22,-259.536 C-1639.57,-275.329 -1648.9,-310.157 -1633.11,-337.511 C-1617.32,-364.865 -1582.49,-374.197 -1555.14,-358.405 Z " fill="#000000" fill-opacity="1.00" />					<path d="M-1136.84,-203.216 C-1085.75,-254.301 -1085.75,-337.223 -1136.84,-388.309 C-1187.92,-439.395 -1270.85,-439.395 -1321.93,-388.309 C-1373.02,-337.223 -1373.02,-254.301 -1321.93,-203.216 C-1270.85,-152.13 -1187.92,-152.13 -1136.84,-203.216 Z M-1173.86,-351.29 C-1143.13,-320.565 -1143.13,-270.96 -1173.86,-240.234 C-1204.58,-209.509 -1254.19,-209.509 -1284.91,-240.234 C-1315.64,-270.96 -1315.64,-320.565 -1284.91,-351.29 C-1254.19,-382.016 -1204.58,-382.016 -1173.86,-351.29 Z " fill="#000000" fill-opacity="1.00" />					<path d="M-1455.41,397.645 C-1404.32,346.559 -1404.32,263.637 -1455.41,212.551 C-1506.5,161.466 -1589.42,161.466 -1640.5,212.551 C-1691.59,263.637 -1691.59,346.559 -1640.5,397.645 C-1589.42,448.731 -1506.5,448.731 -1455.41,397.645 Z M-1492.43,249.57 C-1461.7,280.296 -1461.7,329.901 -1492.43,360.626 C-1523.15,391.352 -1572.76,391.352 -1603.48,360.626 C-1634.21,329.901 -1634.21,280.296 -1603.48,249.57 C-1572.76,218.845 -1523.15,218.845 -1492.43,249.57 Z " fill="#000000" fill-opacity="1.00" />					<path d="M-1287.23,337.998 C-1243.37,381.859 -1188.58,374.592 -1140.57,337.998 C-1128.58,358.177 -1132.16,343.392 -1145.87,480.866 C-1023.1,358.105 -1032.89,246.641 -1114.38,165.147 C-1162.14,117.392 -1239.48,117.392 -1287.23,165.147 C-1334.73,212.642 -1334.99,290.243 -1287.23,337.998 Z " fill="#000000" fill-opacity="1.00" />				</g>				<path d="M-657.068,-75.6831 L-651.896,-115.44 L-801.872,-115.44 L-801.872,106.291 L-752.742,106.291 L-752.742,17.0818 L-666.764,17.0818 L-666.764,-22.6746 L-752.742,-22.6746 L-752.742,-75.6831 L-657.068,-75.6831 Z M-622.16,-126.429 L-622.16,-89.2585 L-574.323,-89.2585 L-574.323,-126.429 L-622.16,-126.429 Z M-621.836,106.291 L-574.646,106.291 L-574.646,-58.8755 L-621.836,-58.8755 L-621.836,106.291 Z M-440.185,106.291 L-382.005,-58.8755 L-427.903,-58.8755 L-463.781,51.6667 L-465.397,51.6667 L-501.274,-58.8755 L-551.374,-58.8755 L-493.517,106.291 L-440.185,106.291 Z M-205.526,44.5558 L-250.777,44.5558 C-250.777,66.5349 -263.382,77.2013 -282.776,77.2013 C-305.401,77.2013 -318.33,60.3937 -318.33,39.3842 L-318.33,31.6268 L-205.202,31.6268 L-205.202,7.06191 C-205.202,-37.2196 -240.757,-62.1078 -280.19,-62.1078 L-285.362,-62.1078 C-330.613,-62.1078 -366.167,-32.3713 -366.167,19.0212 L-366.167,28.3946 C-366.167,79.787 -331.259,109.524 -285.362,109.524 L-280.19,109.524 C-242.05,109.524 -205.526,90.1302 -205.526,44.5558 Z M-285.038,-29.7855 C-261.443,-29.7855 -253.039,-14.594 -253.039,5.76902 L-318.33,5.76902 C-316.714,-14.2708 -304.432,-29.7855 -285.038,-29.7855 Z M-38.7426,62.6562 L-22.5814,106.291 L29.7807,106.291 L-50.7018,-115.44 L-110.175,-115.44 L-190.657,106.291 L-142.497,106.291 L-126.982,62.6562 L-38.7426,62.6562 Z M-83.3473,-62.1078 L-81.7312,-62.1078 C-71.7113,-33.3409 -61.6914,-4.25089 -51.9947,24.8392 L-113.407,24.8392 L-83.3473,-62.1078 Z M144.525,5.12257 L183.958,5.12257 C183.958,5.12257 185.251,-6.19023 185.251,-11.3618 C185.251,-40.7751 169.413,-62.1078 138.707,-62.1078 C107.677,-62.1078 93.7788,-38.1893 92.4859,-34.6338 L86.6679,-58.8755 L51.7598,-58.8755 L51.7598,106.291 L98.3039,106.291 L98.3039,4.1529 C98.3039,-12.3315 105.415,-26.8765 121.576,-26.8765 C139.03,-26.8765 144.525,-13.6244 144.525,-2.31155 L144.525,5.12257 Z M250.219,39.3842 L250.219,10.6174 C250.219,-11.685 261.531,-29.7855 281.571,-29.7855 C301.611,-29.7855 310.985,-14.2708 310.985,7.06191 L357.852,7.06191 C357.852,-37.2196 323.913,-62.1078 286.42,-62.1078 L281.248,-62.1078 C235.674,-62.1078 202.382,-32.3713 202.382,19.0212 L202.382,28.3946 C202.382,79.787 233.411,109.524 281.248,109.524 L286.42,109.524 C323.59,109.524 357.852,88.5141 357.852,40.6771 L313.247,40.6771 C313.247,65.242 300.641,77.2013 281.248,77.2013 C261.531,77.2013 250.219,60.3937 250.219,39.3842 Z " fill="#000000" fill-opacity="1.00" />				<path d="M606.603,-115.44 C582.469,-115.44 563.184,-110.268 548.746,-99.9248 C534.309,-89.5817 527.091,-73.7438 527.091,-52.4111 C527.091,-39.2667 530.538,-28.6542 537.434,-20.5736 C544.329,-12.4931 552.625,-6.51345 562.322,-2.63478 C572.018,1.2439 584.947,5.33805 601.109,9.64769 C614.253,13.0954 624.65,16.2199 632.3,19.0212 C639.949,21.8224 646.306,25.755 651.37,30.8188 C656.434,35.8826 658.965,42.5087 658.965,50.697 C658.965,61.0401 654.279,69.1746 644.905,75.1003 C635.532,81.0261 622.764,83.9889 606.603,83.9889 C590.011,83.9889 577.028,80.9183 567.655,74.7771 C558.282,68.6359 553.595,59.3163 553.595,46.8183 L553.918,40.0306 L522.242,40.0306 L521.919,46.4951 C521.919,68.0433 529.299,84.4738 544.06,95.7866 C558.82,107.099 579.56,112.756 606.28,112.756 C633,112.756 653.74,107.207 668.5,96.1098 C683.261,85.0125 690.641,67.3968 690.641,43.2629 C690.641,29.6875 687.032,18.8057 679.813,10.6174 C672.595,2.42905 663.922,-3.71219 653.794,-7.80634 C643.666,-11.9005 630.414,-16.1024 614.037,-20.412 C601.324,-23.6443 591.358,-26.5533 584.139,-29.139 C576.921,-31.7248 570.887,-35.2803 566.039,-39.8054 C561.191,-44.3305 558.766,-50.1485 558.766,-57.2594 C558.766,-66.7406 563.022,-74.0131 571.534,-79.077 C580.045,-84.1408 591.951,-86.6727 607.25,-86.6727 C621.041,-86.6727 632.138,-83.8714 640.542,-78.2689 C648.946,-72.6664 653.147,-64.6936 653.147,-54.3504 L653.147,-49.5021 L684.823,-49.5021 L684.823,-53.3808 C684.823,-73.2051 677.874,-88.5043 663.975,-99.2784 C650.077,-110.052 630.953,-115.44 606.603,-115.44 Z M800.537,-58.8755 C777.48,-58.8755 759.057,-51.7646 745.266,-37.5428 C731.475,-23.321 724.58,-3.81993 724.58,20.9605 L724.58,32.9197 C724.58,57.7001 731.367,77.2013 744.943,91.4231 C758.518,105.645 777.049,112.756 800.537,112.756 C824.025,112.756 842.556,105.645 856.131,91.4231 C869.707,77.2013 876.494,57.7001 876.494,32.9197 L876.494,20.9605 C876.494,-3.81993 869.599,-23.321 855.808,-37.5428 C842.017,-51.7646 823.594,-58.8755 800.537,-58.8755 Z M800.537,-34.6338 C815.19,-34.6338 826.449,-29.57 834.314,-19.4424 C842.179,-9.31472 846.111,5.12257 846.111,23.8695 L846.111,30.0107 C846.111,48.9731 842.071,63.4643 833.991,73.4842 C825.91,83.5041 814.759,88.5141 800.537,88.5141 C785.884,88.5141 774.625,83.4502 766.76,73.3226 C758.895,63.1949 754.963,48.7576 754.963,30.0107 L754.963,23.8695 C754.963,4.69161 758.949,-9.85342 766.922,-19.7656 C774.895,-29.6778 786.1,-34.6338 800.537,-34.6338 Z M951.805,-123.197 L921.422,-123.197 L921.422,109.524 L951.805,109.524 L951.805,-123.197 Z M1144.77,-55.6433 L1114.39,-55.6433 L1114.39,42.6164 C1114.39,51.0202 1112.34,58.7237 1108.25,65.7268 C1104.15,72.73 1098.71,78.2787 1091.92,82.3728 C1085.13,86.467 1077.97,88.5141 1070.43,88.5141 C1047.16,88.5141 1035.52,75.6929 1035.52,50.0505 L1035.52,-55.6433 L1005.14,-55.6433 L1005.14,55.5453 C1005.14,74.0768 1010.47,88.2447 1021.14,98.0491 C1031.8,107.854 1045.43,112.756 1062.02,112.756 C1073.88,112.756 1084.38,110.385 1093.54,105.645 C1102.7,100.904 1110.18,94.2243 1116,85.605 C1116.43,94.2243 1118.97,100.904 1123.6,105.645 C1128.23,110.385 1136.37,112.756 1148,112.756 C1154.9,112.756 1161.68,110.601 1168.36,106.291 L1168.36,83.9889 C1163.41,87.0057 1158.56,88.5141 1153.82,88.5141 C1151.23,88.5141 1149.08,87.5983 1147.36,85.7667 C1145.63,83.9351 1144.77,81.0799 1144.77,77.2013 L1144.77,-55.6433 Z M1242.06,-108.329 L1222.99,-108.329 L1212.65,-55.6433 L1193.58,-55.6433 L1193.58,-31.4016 L1211.68,-31.4016 L1211.68,65.5652 C1211.68,81.9419 1214.96,93.9011 1221.53,101.443 C1228.11,108.985 1237.75,112.756 1250.46,112.756 C1262.75,112.756 1272.77,110.816 1280.52,106.938 L1280.52,84.3122 C1272.77,87.5444 1266.09,89.1605 1260.48,89.1605 C1254.23,89.1605 1249.6,87.4366 1246.58,83.9889 C1243.57,80.5412 1242.06,74.9387 1242.06,67.1813 L1242.06,-31.4016 L1280.52,-31.4016 L1280.52,-55.6433 L1242.06,-55.6433 L1242.06,-108.329 Z M1349.37,-123.197 L1317.69,-123.197 L1317.69,-95.0765 L1349.37,-95.0765 L1349.37,-123.197 Z M1348.72,-55.6433 L1318.34,-55.6433 L1318.34,109.524 L1348.72,109.524 L1348.72,-55.6433 Z M1468.32,-58.8755 C1445.26,-58.8755 1426.84,-51.7646 1413.04,-37.5428 C1399.25,-23.321 1392.36,-3.81993 1392.36,20.9605 L1392.36,32.9197 C1392.36,57.7001 1399.15,77.2013 1412.72,91.4231 C1426.3,105.645 1444.83,112.756 1468.32,112.756 C1491.8,112.756 1510.33,105.645 1523.91,91.4231 C1537.48,77.2013 1544.27,57.7001 1544.27,32.9197 L1544.27,20.9605 C1544.27,-3.81993 1537.38,-23.321 1523.59,-37.5428 C1509.8,-51.7646 1491.37,-58.8755 1468.32,-58.8755 Z M1468.32,-34.6338 C1482.97,-34.6338 1494.23,-29.57 1502.09,-19.4424 C1509.96,-9.31472 1513.89,5.12257 1513.89,23.8695 L1513.89,30.0107 C1513.89,48.9731 1509.85,63.4643 1501.77,73.4842 C1493.69,83.5041 1482.54,88.5141 1468.32,88.5141 C1453.66,88.5141 1442.4,83.4502 1434.54,73.3226 C1426.67,63.1949 1422.74,48.7576 1422.74,30.0107 L1422.74,23.8695 C1422.74,4.6916 1426.73,-9.85342 1434.7,-19.7656 C1442.67,-29.6778 1453.88,-34.6338 1468.32,-34.6338 Z M1669.36,-58.8755 C1646.3,-58.8755 1627.88,-49.7176 1614.09,-31.4016 L1609.89,-55.6433 L1587.91,-55.6433 L1587.91,109.524 L1618.29,109.524 L1618.29,11.2638 C1618.29,2.86001 1620.34,-4.84347 1624.43,-11.8466 C1628.53,-18.8498 1633.91,-24.3984 1640.59,-28.4926 C1647.27,-32.5868 1654.49,-34.6338 1662.25,-34.6338 C1685.52,-34.6338 1697.16,-21.8127 1697.16,3.82968 L1697.16,109.524 L1727.54,109.524 L1727.54,-1.66511 C1727.54,-20.412 1722.37,-34.6338 1712.03,-44.3305 C1701.68,-54.0272 1687.46,-58.8755 1669.36,-58.8755 Z M1842.61,-58.8755 L1839.7,-58.8755 C1818.8,-58.8755 1802.31,-54.512 1790.25,-45.785 C1778.18,-37.058 1772.14,-25.0449 1772.14,-9.74568 C1772.14,1.45938 1775.05,10.2941 1780.87,16.7586 C1786.69,23.223 1793.69,27.802 1801.88,30.4956 C1810.07,33.1891 1820.84,35.8287 1834.2,38.4145 C1844.55,40.1384 1852.63,41.8622 1858.45,43.5861 C1864.26,45.3099 1869.17,47.8957 1873.15,51.3434 C1877.14,54.7911 1879.13,59.5317 1879.13,65.5652 C1879.13,72.6761 1875.52,78.2787 1868.3,82.3728 C1861.08,86.467 1852.95,88.5141 1843.9,88.5141 C1813.09,88.5141 1797.68,79.3561 1797.68,61.0401 L1797.68,57.8079 L1767.62,57.8079 L1767.62,64.9188 C1767.4,73.969 1770.04,82.1035 1775.54,89.3221 C1781.03,96.5408 1788.84,102.251 1798.97,106.453 C1809.1,110.655 1820.95,112.756 1834.53,112.756 L1839.38,112.756 C1862,112.756 1879.35,108.338 1891.41,99.5036 C1903.48,90.6689 1909.51,77.4167 1909.51,59.7472 C1909.51,48.7576 1906.44,40.0306 1900.3,33.5662 C1894.16,27.1017 1886.73,22.3611 1878,19.3444 C1869.27,16.3276 1858.12,13.4186 1844.55,10.6174 C1830.32,7.81609 1819.77,4.85322 1812.87,1.72873 C1805.98,-1.39576 1802.53,-6.29797 1802.53,-12.9779 C1802.53,-27.4152 1814.59,-34.6338 1838.73,-34.6338 C1863.08,-34.6338 1875.25,-26.7687 1875.25,-11.0386 L1875.25,-8.12957 L1905.31,-8.12957 L1905.64,-13.9476 C1905.64,-22.3514 1903,-30.001 1897.72,-36.8964 C1892.44,-43.7918 1885,-49.1789 1875.41,-53.0575 C1865.83,-56.9362 1854.89,-58.8755 1842.61,-58.8755 Z " fill="#000000" fill-opacity="1.00" />			</g>		</g>	</svg>