<?xml version="1.0" encoding="utf-8" ?>	<!-- Generator: Assembly 2.4 - http://assemblyapp.co -->	<svg version="1.1" xmlns="http://www.w3.org/2000/svg" xmlns:xlink="http://www.w3.org/1999/xlink" width="4096.00" height="4096.00" viewBox="0 0 4096.0 4096.0">		<g id="document" transform="scale(1.0 1.0) translate(2048.0 2048.0)">			<g>				<path d="M-709.494,-111.991 C-709.494,-430.539 -968.025,-689.071 -1286.57,-689.071 C-1605.12,-689.071 -1863.65,-430.539 -1863.65,-111.991 C-1863.65,206.557 -1605.12,465.089 -1286.57,465.089 C-968.025,465.089 -709.494,206.557 -709.494,-111.991 Z M-1286.57,-458.239 C-1094.98,-458.239 -940.326,-303.581 -940.326,-111.991 C-940.326,79.5999 -1094.98,234.257 -1286.57,234.257 C-1478.16,234.257 -1632.82,79.5999 -1632.82,-111.991 C-1632.82,-303.581 -1478.16,-458.239 -1286.57,-458.239 Z " fill="#000000" fill-opacity="1.00" />				<path d="M1532.53,137.215 C1670.09,-0.346605 1670.09,-223.635 1532.53,-361.196 C1394.97,-498.758 1171.68,-498.758 1034.12,-361.196 C896.559,-223.635 896.559,-0.346598 1034.12,137.215 C1171.68,274.776 1394.97,274.776 1532.53,137.215 Z M1432.85,-261.514 C1515.59,-178.778 1515.59,-45.2036 1432.85,37.5326 C1350.11,120.269 1216.54,120.269 1133.8,37.5326 C1051.07,-45.2036 1051.07,-178.778 1133.8,-261.514 C1216.54,-344.25 1350.11,-344.25 1432.85,-261.514 Z " fill="#000000" fill-opacity="1.00" />				<path d="M-351.688,-1068.61 C-254.437,-1237.05 -312.217,-1452.69 -480.66,-1549.94 C-649.104,-1647.19 -864.741,-1589.41 -961.992,-1420.97 C-1059.24,-1252.53 -1001.46,-1036.89 -833.02,-939.638 C-664.576,-842.387 -448.939,-900.167 -351.688,-1068.61 Z M-551.132,-1427.88 C-449.822,-1369.39 -415.257,-1240.39 -473.749,-1139.08 C-532.241,-1037.77 -661.237,-1003.21 -762.548,-1061.7 C-863.858,-1120.19 -898.423,-1249.19 -839.931,-1350.5 C-781.44,-1451.81 -652.443,-1486.37 -551.132,-1427.88 Z " fill="#000000" fill-opacity="1.00" />				<path d="M998.127,-853.104 C1187.33,-1042.31 1187.33,-1349.43 998.127,-1538.64 C808.919,-1727.85 501.799,-1727.85 312.591,-1538.64 C123.383,-1349.43 123.383,-1042.31 312.591,-853.104 C501.799,-663.896 808.919,-663.896 998.127,-853.104 Z M861.02,-1401.53 C974.819,-1287.73 974.819,-1104.01 861.02,-990.211 C747.221,-876.412 563.497,-876.412 449.698,-990.211 C335.899,-1104.01 335.899,-1287.73 449.698,-1401.53 C563.497,-1515.33 747.221,-1515.33 861.02,-1401.53 Z " fill="#000000" fill-opacity="1.00" />				<path d="M-181.775,1372.32 C7.43272,1183.11 7.43272,875.991 -181.775,686.783 C-370.983,497.575 -678.103,497.575 -867.311,686.783 C-1056.52,875.991 -1056.52,1183.11 -867.311,1372.32 C-678.103,1561.53 -370.983,1561.53 -181.775,1372.32 Z M-318.882,823.89 C-205.083,937.689 -205.083,1121.41 -318.882,1235.21 C-432.681,1349.01 -616.405,1349.01 -730.204,1235.21 C-844.003,1121.41 -844.003,937.689 -730.204,823.89 C-616.405,710.091 -432.681,710.091 -318.882,823.89 Z " fill="#000000" fill-opacity="1.00" />				<path d="M441.099,1151.4 C603.551,1313.85 806.485,1286.94 984.317,1151.4 C1028.72,1226.14 1015.46,1171.38 964.694,1680.55 C1419.37,1225.87 1383.13,813.041 1081.29,511.208 C904.422,334.338 617.97,334.338 441.099,511.208 C265.19,687.117 264.229,974.531 441.099,1151.4 Z " fill="#000000" fill-opacity="1.00" />			</g>		</g>	</svg>