<?xml version="1.0" encoding="utf-8" ?>	<!-- Generator: Assembly 2.4 - http://assemblyapp.co -->	<svg version="1.1" xmlns="http://www.w3.org/2000/svg" xmlns:xlink="http://www.w3.org/1999/xlink" width="4096.00" height="4096.00" viewBox="0 0 4096.0 4096.0">		<g id="document" transform="scale(1.0 1.0) translate(2048.0 2048.0)">			<g>				<g>					<path d="M-1319.86,-402.912 C-1319.86,-471.839 -1375.8,-527.781 -1444.73,-527.781 C-1513.66,-527.781 -1569.6,-471.839 -1569.6,-402.912 C-1569.6,-333.984 -1513.66,-278.043 -1444.73,-278.043 C-1375.8,-278.043 -1319.86,-333.984 -1319.86,-402.912 Z M-1444.73,-477.833 C-1403.27,-477.833 -1369.81,-444.368 -1369.81,-402.912 C-1369.81,-361.455 -1403.27,-327.99 -1444.73,-327.99 C-1486.19,-327.99 -1519.65,-361.455 -1519.65,-402.912 C-1519.65,-444.368 -1486.19,-477.833 -1444.73,-477.833 Z " fill="#000000" fill-opacity="1.00" />					<path d="M-834.73,-348.988 C-804.965,-378.754 -804.965,-427.069 -834.73,-456.835 C-864.496,-486.601 -912.811,-486.601 -942.577,-456.835 C-972.342,-427.069 -972.342,-378.754 -942.577,-348.988 C-912.811,-319.223 -864.496,-319.223 -834.73,-348.988 Z M-856.299,-435.266 C-838.397,-417.363 -838.397,-388.46 -856.299,-370.558 C-874.202,-352.655 -903.105,-352.655 -921.007,-370.558 C-938.91,-388.46 -938.91,-417.363 -921.007,-435.266 C-903.105,-453.168 -874.202,-453.168 -856.299,-435.266 Z " fill="#000000" fill-opacity="1.00" />					<path d="M-1242.44,-609.906 C-1221.4,-646.354 -1233.9,-693.013 -1270.35,-714.057 C-1306.79,-735.1 -1353.45,-722.597 -1374.5,-686.149 C-1395.54,-649.701 -1383.04,-603.042 -1346.59,-581.999 C-1310.14,-560.955 -1263.48,-573.458 -1242.44,-609.906 Z M-1285.59,-687.645 C-1263.67,-674.989 -1256.19,-647.076 -1268.85,-625.154 C-1281.51,-603.233 -1309.42,-595.754 -1331.34,-608.41 C-1353.26,-621.067 -1360.74,-648.979 -1348.09,-670.901 C-1335.43,-692.822 -1307.52,-700.301 -1285.59,-687.645 Z " fill="#000000" fill-opacity="1.00" />					<path d="M-950.365,-563.274 C-909.424,-604.215 -909.424,-670.67 -950.365,-711.611 C-991.306,-752.552 -1057.76,-752.552 -1098.7,-711.611 C-1139.64,-670.67 -1139.64,-604.215 -1098.7,-563.274 C-1057.76,-522.333 -991.306,-522.333 -950.365,-563.274 Z M-980.032,-681.944 C-955.408,-657.32 -955.408,-617.565 -980.032,-592.942 C-1004.66,-568.318 -1044.41,-568.318 -1069.03,-592.942 C-1093.66,-617.565 -1093.66,-657.32 -1069.03,-681.944 C-1044.41,-706.568 -1004.66,-706.568 -980.032,-681.944 Z " fill="#000000" fill-opacity="1.00" />					<path d="M-1205.67,-81.7356 C-1164.73,-122.677 -1164.73,-189.131 -1205.67,-230.072 C-1246.61,-271.013 -1313.07,-271.013 -1354.01,-230.072 C-1394.95,-189.131 -1394.95,-122.677 -1354.01,-81.7356 C-1313.07,-40.7947 -1246.61,-40.7947 -1205.67,-81.7356 Z M-1235.34,-200.405 C-1210.72,-175.781 -1210.72,-136.027 -1235.34,-111.403 C-1259.96,-86.7791 -1299.72,-86.7791 -1324.34,-111.403 C-1348.97,-136.027 -1348.97,-175.781 -1324.34,-200.405 C-1299.72,-225.029 -1259.96,-225.029 -1235.34,-200.405 Z " fill="#000000" fill-opacity="1.00" />					<path d="M-1070.9,-129.538 C-1035.74,-94.3865 -991.833,-100.21 -953.353,-129.538 C-943.746,-113.366 -946.614,-125.215 -957.599,-15.0412 C-859.217,-113.423 -867.059,-202.752 -932.37,-268.063 C-970.641,-306.335 -1032.62,-306.335 -1070.9,-268.063 C-1108.96,-230 -1109.17,-167.809 -1070.9,-129.538 Z " fill="#000000" fill-opacity="1.00" />				</g>				<path d="M-565.87,-461.068 L-561.725,-492.929 L-681.918,-492.929 L-681.918,-315.231 L-642.544,-315.231 L-642.544,-386.725 L-573.641,-386.725 L-573.641,-418.586 L-642.544,-418.586 L-642.544,-461.068 L-565.87,-461.068 Z M-537.894,-501.736 L-537.894,-471.947 L-499.557,-471.947 L-499.557,-501.736 L-537.894,-501.736 Z M-537.635,-315.231 L-499.816,-315.231 L-499.816,-447.598 L-537.635,-447.598 L-537.635,-315.231 Z M-392.057,-315.231 L-345.431,-447.598 L-382.214,-447.598 L-410.967,-359.008 L-412.262,-359.008 L-441.015,-447.598 L-481.165,-447.598 L-434.798,-315.231 L-392.057,-315.231 Z M-203.997,-364.707 L-240.262,-364.707 C-240.262,-347.092 -250.364,-338.544 -265.907,-338.544 C-284.039,-338.544 -294.401,-352.014 -294.401,-368.851 L-294.401,-375.068 L-203.738,-375.068 L-203.738,-394.755 C-203.738,-430.243 -232.232,-450.188 -263.834,-450.188 L-267.979,-450.188 C-304.244,-450.188 -332.738,-426.357 -332.738,-385.17 L-332.738,-377.658 C-332.738,-336.472 -304.762,-312.64 -267.979,-312.64 L-263.834,-312.64 C-233.268,-312.64 -203.997,-328.183 -203.997,-364.707 Z M-267.72,-424.285 C-248.81,-424.285 -242.075,-412.11 -242.075,-395.791 L-294.401,-395.791 C-293.105,-411.851 -283.262,-424.285 -267.72,-424.285 Z M-70.3347,-350.201 L-57.383,-315.231 L-15.4192,-315.231 L-79.9191,-492.929 L-127.582,-492.929 L-192.081,-315.231 L-153.485,-315.231 L-141.051,-350.201 L-70.3347,-350.201 Z M-106.082,-450.188 L-104.786,-450.188 C-96.7564,-427.134 -88.7263,-403.821 -80.9552,-380.508 L-130.172,-380.508 L-106.082,-450.188 Z M76.5384,-396.309 L108.141,-396.309 C108.141,-396.309 109.177,-405.375 109.177,-409.52 C109.177,-433.092 96.4842,-450.188 71.8758,-450.188 C47.0084,-450.188 35.8698,-431.02 34.8337,-428.17 L30.1711,-447.598 L2.19523,-447.598 L2.19523,-315.231 L39.4963,-315.231 L39.4963,-397.086 C39.4963,-410.297 45.1951,-421.953 58.1469,-421.953 C72.1348,-421.953 76.5384,-411.333 76.5384,-402.267 L76.5384,-396.309 Z M161.243,-368.851 L161.243,-391.905 C161.243,-409.779 170.309,-424.285 186.37,-424.285 C202.43,-424.285 209.942,-411.851 209.942,-394.755 L247.502,-394.755 C247.502,-430.243 220.303,-450.188 190.255,-450.188 L186.11,-450.188 C149.586,-450.188 122.906,-426.357 122.906,-385.17 L122.906,-377.658 C122.906,-336.472 147.773,-312.64 186.11,-312.64 L190.255,-312.64 C220.044,-312.64 247.502,-329.478 247.502,-367.815 L211.755,-367.815 C211.755,-348.128 201.653,-338.544 186.11,-338.544 C170.309,-338.544 161.243,-352.014 161.243,-368.851 Z " fill="#000000" fill-opacity="1.00" />				<path d="M446.855,-492.929 C427.514,-492.929 412.058,-488.785 400.488,-480.495 C388.917,-472.206 383.132,-459.514 383.132,-442.417 C383.132,-431.883 385.895,-423.378 391.421,-416.902 C396.948,-410.426 403.596,-405.634 411.367,-402.526 C419.138,-399.417 429.5,-396.136 442.451,-392.682 C452.986,-389.919 461.318,-387.415 467.448,-385.17 C473.579,-382.925 478.673,-379.774 482.732,-375.716 C486.79,-371.657 488.819,-366.347 488.819,-359.785 C488.819,-351.496 485.063,-344.977 477.551,-340.228 C470.039,-335.479 459.807,-333.104 446.855,-333.104 C433.558,-333.104 423.153,-335.565 415.641,-340.487 C408.129,-345.408 404.373,-352.877 404.373,-362.893 L404.632,-368.333 L379.247,-368.333 L378.988,-363.152 C378.988,-345.883 384.902,-332.716 396.732,-323.649 C408.561,-314.583 425.182,-310.05 446.596,-310.05 C468.01,-310.05 484.631,-314.497 496.46,-323.39 C508.29,-332.284 514.204,-346.401 514.204,-365.743 C514.204,-376.622 511.312,-385.343 505.527,-391.905 C499.742,-398.468 492.791,-403.389 484.674,-406.67 C476.558,-409.951 465.937,-413.319 452.813,-416.773 C442.624,-419.363 434.637,-421.694 428.852,-423.767 C423.067,-425.839 418.232,-428.688 414.346,-432.315 C410.461,-435.941 408.518,-440.604 408.518,-446.303 C408.518,-453.901 411.928,-459.729 418.75,-463.788 C425.571,-467.846 435.112,-469.875 447.373,-469.875 C458.425,-469.875 467.319,-467.63 474.054,-463.14 C480.789,-458.65 484.156,-452.261 484.156,-443.971 L484.156,-440.086 L509.542,-440.086 L509.542,-443.194 C509.542,-459.082 503.972,-471.343 492.834,-479.977 C481.695,-488.612 466.369,-492.929 446.855,-492.929 Z M602.276,-447.598 C583.799,-447.598 569.034,-441.899 557.981,-430.502 C546.929,-419.104 541.403,-403.476 541.403,-383.616 L541.403,-374.032 C541.403,-354.172 546.843,-338.544 557.722,-327.146 C568.602,-315.749 583.453,-310.05 602.276,-310.05 C621.1,-310.05 635.951,-315.749 646.831,-327.146 C657.71,-338.544 663.15,-354.172 663.15,-374.032 L663.15,-383.616 C663.15,-403.476 657.624,-419.104 646.572,-430.502 C635.519,-441.899 620.754,-447.598 602.276,-447.598 Z M602.276,-428.17 C614.019,-428.17 623.042,-424.112 629.346,-415.996 C635.649,-407.879 638.8,-396.309 638.8,-381.285 L638.8,-376.363 C638.8,-361.166 635.562,-349.553 629.087,-341.523 C622.611,-333.493 613.674,-329.478 602.276,-329.478 C590.533,-329.478 581.51,-333.536 575.207,-341.652 C568.904,-349.769 565.752,-361.339 565.752,-376.363 L565.752,-381.285 C565.752,-396.654 568.947,-408.311 575.337,-416.255 C581.726,-424.198 590.706,-428.17 602.276,-428.17 Z M723.505,-499.146 L699.156,-499.146 L699.156,-312.64 L723.505,-312.64 L723.505,-499.146 Z M878.149,-445.008 L853.8,-445.008 L853.8,-366.261 C853.8,-359.526 852.159,-353.352 848.878,-347.74 C845.597,-342.127 841.237,-337.681 835.797,-334.399 C830.357,-331.118 824.615,-329.478 818.571,-329.478 C799.921,-329.478 790.595,-339.753 790.595,-360.303 L790.595,-445.008 L766.246,-445.008 L766.246,-355.899 C766.246,-341.048 770.52,-329.694 779.068,-321.836 C787.616,-313.979 798.539,-310.05 811.836,-310.05 C821.334,-310.05 829.753,-311.95 837.092,-315.749 C844.432,-319.548 850.432,-324.901 855.095,-331.809 C855.441,-324.901 857.47,-319.548 861.182,-315.749 C864.895,-311.95 871.414,-310.05 880.74,-310.05 C886.266,-310.05 891.705,-311.777 897.059,-315.231 L897.059,-333.104 C893.087,-330.687 889.201,-329.478 885.402,-329.478 C883.33,-329.478 881.603,-330.212 880.222,-331.68 C878.84,-333.147 878.149,-335.436 878.149,-338.544 L878.149,-445.008 Z M956.119,-487.23 L940.836,-487.23 L932.547,-445.008 L917.264,-445.008 L917.264,-425.58 L931.77,-425.58 L931.77,-347.869 C931.77,-334.745 934.403,-325.16 939.67,-319.116 C944.937,-313.072 952.665,-310.05 962.854,-310.05 C972.697,-310.05 980.727,-311.604 986.944,-314.713 L986.944,-332.845 C980.727,-330.255 975.374,-328.96 970.884,-328.96 C965.876,-328.96 962.163,-330.341 959.746,-333.104 C957.328,-335.867 956.119,-340.357 956.119,-346.574 L956.119,-425.58 L986.944,-425.58 L986.944,-445.008 L956.119,-445.008 L956.119,-487.23 Z M1042.12,-499.146 L1016.73,-499.146 L1016.73,-476.61 L1042.12,-476.61 L1042.12,-499.146 Z M1041.6,-445.008 L1017.25,-445.008 L1017.25,-312.64 L1041.6,-312.64 L1041.6,-445.008 Z M1137.44,-447.598 C1118.97,-447.598 1104.2,-441.899 1093.15,-430.502 C1082.1,-419.104 1076.57,-403.476 1076.57,-383.616 L1076.57,-374.032 C1076.57,-354.172 1082.01,-338.544 1092.89,-327.146 C1103.77,-315.749 1118.62,-310.05 1137.44,-310.05 C1156.27,-310.05 1171.12,-315.749 1182,-327.146 C1192.88,-338.544 1198.32,-354.172 1198.32,-374.032 L1198.32,-383.616 C1198.32,-403.476 1192.79,-419.104 1181.74,-430.502 C1170.69,-441.899 1155.92,-447.598 1137.44,-447.598 Z M1137.44,-428.17 C1149.19,-428.17 1158.21,-424.112 1164.51,-415.996 C1170.82,-407.879 1173.97,-396.309 1173.97,-381.285 L1173.97,-376.363 C1173.97,-361.166 1170.73,-349.553 1164.25,-341.523 C1157.78,-333.493 1148.84,-329.478 1137.44,-329.478 C1125.7,-329.478 1116.68,-333.536 1110.37,-341.652 C1104.07,-349.769 1100.92,-361.339 1100.92,-376.363 L1100.92,-381.285 C1100.92,-396.654 1104.11,-408.311 1110.5,-416.255 C1116.89,-424.198 1125.87,-428.17 1137.44,-428.17 Z M1298.56,-447.598 C1280.09,-447.598 1265.32,-440.259 1254.27,-425.58 L1250.9,-445.008 L1233.29,-445.008 L1233.29,-312.64 L1257.64,-312.64 L1257.64,-391.387 C1257.64,-398.122 1259.28,-404.296 1262.56,-409.908 C1265.84,-415.521 1270.16,-419.967 1275.51,-423.249 C1280.86,-426.53 1286.65,-428.17 1292.87,-428.17 C1311.52,-428.17 1320.84,-417.895 1320.84,-397.345 L1320.84,-312.64 L1345.19,-312.64 L1345.19,-401.749 C1345.19,-416.773 1341.05,-428.17 1332.76,-435.941 C1324.47,-443.712 1313.07,-447.598 1298.56,-447.598 Z M1437.41,-447.598 L1435.08,-447.598 C1418.32,-447.598 1405.11,-444.101 1395.44,-437.107 C1385.77,-430.113 1380.94,-420.486 1380.94,-408.225 C1380.94,-399.245 1383.27,-392.164 1387.93,-386.984 C1392.59,-381.803 1398.21,-378.133 1404.77,-375.975 C1411.33,-373.816 1419.97,-371.701 1430.67,-369.628 C1438.96,-368.247 1445.44,-366.865 1450.1,-365.484 C1454.76,-364.102 1458.69,-362.03 1461.89,-359.267 C1465.08,-356.504 1466.68,-352.705 1466.68,-347.869 C1466.68,-342.17 1463.79,-337.681 1458,-334.399 C1452.22,-331.118 1445.7,-329.478 1438.44,-329.478 C1413.75,-329.478 1401.4,-336.817 1401.4,-351.496 L1401.4,-354.086 L1377.31,-354.086 L1377.31,-348.387 C1377.14,-341.134 1379.25,-334.615 1383.66,-328.83 C1388.06,-323.045 1394.32,-318.469 1402.44,-315.101 C1410.55,-311.734 1420.05,-310.05 1430.93,-310.05 L1434.82,-310.05 C1452.95,-310.05 1466.85,-313.59 1476.52,-320.671 C1486.19,-327.751 1491.03,-338.371 1491.03,-352.532 C1491.03,-361.339 1488.57,-368.333 1483.64,-373.514 C1478.72,-378.694 1472.77,-382.494 1465.77,-384.911 C1458.78,-387.329 1449.84,-389.66 1438.96,-391.905 C1427.56,-394.15 1419.1,-396.525 1413.58,-399.029 C1408.05,-401.533 1405.29,-405.462 1405.29,-410.815 C1405.29,-422.385 1414.96,-428.17 1434.3,-428.17 C1453.81,-428.17 1463.57,-421.867 1463.57,-409.261 L1463.57,-406.929 L1487.66,-406.929 L1487.92,-411.592 C1487.92,-418.327 1485.8,-424.457 1481.57,-429.984 C1477.34,-435.51 1471.38,-439.827 1463.7,-442.935 C1456.01,-446.044 1447.25,-447.598 1437.41,-447.598 Z " fill="#000000" fill-opacity="1.00" />			</g>		</g>	</svg>